<?xml version="1.0" standalone="no"?>
<!DOCTYPE svg PUBLIC "-//W3C//DTD SVG 20010904//EN"
 "http://www.w3.org/TR/2001/REC-SVG-20010904/DTD/svg10.dtd">
<svg version="1.0" xmlns="http://www.w3.org/2000/svg"
 width="512.000000pt" height="512.000000pt" viewBox="0 0 512.000000 512.000000"
 preserveAspectRatio="xMidYMid meet">

<g transform="translate(0.000000,512.000000) scale(0.100000,-0.100000)"
fill="#000000" stroke="none">
<path d="M2502 4785 c-18 -8 -509 -417 -1091 -910 -901 -762 -1062 -902 -1075
-936 -21 -51 -20 -74 4 -126 31 -69 115 -106 186 -83 19 7 88 56 152 110 l117
99 5 -1117 5 -1117 22 -58 c64 -170 202 -287 374 -317 42 -7 167 -10 350 -8
l284 3 56 28 c66 32 132 99 162 165 18 40 22 70 25 208 l4 161 -46 114 c-141
355 -154 747 -35 1104 158 475 539 856 1014 1014 183 61 279 75 505 75 176 0
220 -3 310 -23 287 -62 531 -182 747 -370 45 -39 90 -71 100 -71 52 0 122 84
123 147 1 76 20 58 -1091 998 -582 493 -1074 902 -1094 910 -43 18 -71 18
-113 0z"/>
<path d="M3326 2865 c-276 -45 -509 -165 -707 -364 -158 -158 -248 -303 -314
-506 -123 -374 -65 -782 158 -1115 65 -98 241 -273 341 -340 264 -176 592
-252 896 -205 286 43 518 160 721 364 253 252 373 544 373 901 0 357 -121 650
-373 901 -189 189 -401 304 -655 355 -108 22 -334 26 -440 9z m257 -479 c42
-17 85 -68 92 -109 6 -29 12 -35 49 -45 108 -29 151 -167 79 -253 -44 -51 -75
-59 -243 -59 -147 0 -152 -1 -175 -25 -30 -29 -32 -74 -6 -106 18 -23 27 -24
168 -29 139 -6 152 -8 215 -37 92 -43 151 -100 196 -191 35 -72 37 -81 37
-171 0 -87 -3 -102 -32 -163 -42 -90 -100 -150 -186 -193 -38 -19 -75 -35 -82
-35 -7 0 -15 -19 -19 -42 -9 -53 -66 -113 -119 -123 -86 -16 -168 31 -189 110
-10 38 -15 43 -53 53 -107 29 -150 167 -78 253 44 51 75 59 243 59 147 0 152
1 175 25 30 29 32 74 6 106 -18 23 -27 24 -168 29 -139 6 -152 8 -215 37 -92
43 -151 100 -196 191 -35 72 -37 81 -37 171 0 87 3 102 32 163 42 90 100 150
186 193 38 19 75 35 82 35 7 0 15 18 19 39 15 98 125 157 219 117z"/>
</g>
</svg>
